<svg width="165" height="31" viewBox="0 0 165 31" fill="none" xmlns="http://www.w3.org/2000/svg">
<path d="M14.64 30.28C12.5333 30.28 10.5867 29.9333 8.8 29.24C7.01333 28.52 5.46667 27.52 4.16 26.24C2.85333 24.96 1.82667 23.4533 1.08 21.72C0.359998 19.9867 -1.78814e-06 18.0933 -1.78814e-06 16.04C-1.78814e-06 13.9867 0.359998 12.0933 1.08 10.36C1.82667 8.62667 2.85333 7.12 4.16 5.84C5.49333 4.56 7.05333 3.57333 8.84 2.88C10.6267 2.16 12.5733 1.8 14.68 1.8C16.7067 1.8 18.6133 2.14667 20.4 2.84C22.1867 3.50667 23.6933 4.52 24.92 5.88L23.04 7.76C21.8933 6.58667 20.6267 5.74667 19.24 5.24C17.8533 4.70667 16.36 4.44 14.76 4.44C13.08 4.44 11.52 4.73333 10.08 5.32C8.64 5.88 7.38666 6.69333 6.32 7.76C5.25333 8.8 4.41333 10.0267 3.8 11.44C3.21333 12.8267 2.92 14.36 2.92 16.04C2.92 17.72 3.21333 19.2667 3.8 20.68C4.41333 22.0667 5.25333 23.2933 6.32 24.36C7.38666 25.4 8.64 26.2133 10.08 26.8C11.52 27.36 13.08 27.64 14.76 27.64C16.36 27.64 17.8533 27.3733 19.24 26.84C20.6267 26.3067 21.8933 25.4533 23.04 24.28L24.92 26.16C23.6933 27.52 22.1867 28.5467 20.4 29.24C18.6133 29.9333 16.6933 30.28 14.64 30.28ZM30.63 30.04V9.04H33.47V30.04H30.63ZM32.07 4.4C31.4833 4.4 30.99 4.2 30.59 3.8C30.19 3.4 29.99 2.92 29.99 2.36C29.99 1.8 30.19 1.33333 30.59 0.959999C30.99 0.559999 31.4833 0.359999 32.07 0.359999C32.6567 0.359999 33.15 0.546666 33.55 0.919999C33.95 1.29333 34.15 1.76 34.15 2.32C34.15 2.90667 33.95 3.4 33.55 3.8C33.1767 4.2 32.6833 4.4 32.07 4.4ZM52.0922 8.84C53.7989 8.84 55.2922 9.17333 56.5722 9.84C57.8789 10.48 58.8922 11.4667 59.6122 12.8C60.3589 14.1333 60.7322 15.8133 60.7322 17.84V30.04H57.8922V18.12C57.8922 15.9067 57.3322 14.24 56.2122 13.12C55.1189 11.9733 53.5722 11.4 51.5722 11.4C50.0789 11.4 48.7722 11.7067 47.6522 12.32C46.5589 12.9067 45.7055 13.7733 45.0922 14.92C44.5055 16.04 44.2122 17.4 44.2122 19V30.04H41.3722V9.04H44.0922V14.8L43.6522 13.72C44.3189 12.2 45.3855 11.0133 46.8522 10.16C48.3189 9.28 50.0655 8.84 52.0922 8.84ZM77.3234 30.24C75.1368 30.24 73.2168 29.7867 71.5634 28.88C69.9101 27.9467 68.6168 26.68 67.6834 25.08C66.7501 23.4533 66.2834 21.6 66.2834 19.52C66.2834 17.44 66.7234 15.6 67.6034 14C68.5101 12.4 69.7368 11.1467 71.2834 10.24C72.8568 9.30667 74.6168 8.84 76.5634 8.84C78.5368 8.84 80.2834 9.29333 81.8034 10.2C83.3501 11.08 84.5634 12.3333 85.4434 13.96C86.3234 15.56 86.7634 17.4133 86.7634 19.52C86.7634 19.6533 86.7501 19.8 86.7234 19.96C86.7234 20.0933 86.7234 20.24 86.7234 20.4H68.4434V18.28H85.2034L84.0834 19.12C84.0834 17.6 83.7501 16.2533 83.0834 15.08C82.4434 13.88 81.5634 12.9467 80.4434 12.28C79.3234 11.6133 78.0301 11.28 76.5634 11.28C75.1234 11.28 73.8301 11.6133 72.6834 12.28C71.5368 12.9467 70.6434 13.88 70.0034 15.08C69.3634 16.28 69.0434 17.6533 69.0434 19.2V19.64C69.0434 21.24 69.3901 22.6533 70.0834 23.88C70.8034 25.08 71.7901 26.0267 73.0434 26.72C74.3234 27.3867 75.7768 27.72 77.4034 27.72C78.6834 27.72 79.8701 27.4933 80.9634 27.04C82.0834 26.5867 83.0434 25.8933 83.8434 24.96L85.4434 26.8C84.5101 27.92 83.3368 28.7733 81.9234 29.36C80.5368 29.9467 79.0034 30.24 77.3234 30.24ZM101.865 30.04V2.04H113.985C116.492 2.04 118.652 2.45333 120.465 3.28C122.278 4.08 123.678 5.24 124.665 6.76C125.652 8.28 126.145 10.0933 126.145 12.2C126.145 14.28 125.652 16.08 124.665 17.6C123.678 19.0933 122.278 20.24 120.465 21.04C118.652 21.84 116.492 22.24 113.985 22.24H105.465L108.345 19.4V30.04H101.865ZM119.665 30.04L112.665 19.88H119.585L126.665 30.04H119.665ZM108.345 20.12L105.465 17.08H113.625C115.625 17.08 117.118 16.6533 118.105 15.8C119.092 14.92 119.585 13.72 119.585 12.2C119.585 10.6533 119.092 9.45333 118.105 8.6C117.118 7.74667 115.625 7.32 113.625 7.32H105.465L108.345 4.24V20.12ZM130.839 30.04V8.52H137.079V30.04H130.839ZM130.319 5.76L135.719 -9.53674e-07H142.439L135.199 5.76H130.319ZM153.11 30.36C150.817 30.36 148.777 29.88 146.99 28.92C145.23 27.96 143.83 26.6533 142.79 25C141.777 23.32 141.27 21.4133 141.27 19.28C141.27 17.12 141.777 15.2133 142.79 13.56C143.83 11.88 145.23 10.5733 146.99 9.64C148.777 8.68 150.817 8.2 153.11 8.2C155.377 8.2 157.404 8.68 159.19 9.64C160.977 10.5733 162.377 11.8667 163.39 13.52C164.404 15.1733 164.91 17.0933 164.91 19.28C164.91 21.4133 164.404 23.32 163.39 25C162.377 26.6533 160.977 27.96 159.19 28.92C157.404 29.88 155.377 30.36 153.11 30.36ZM153.11 25.24C154.15 25.24 155.084 25 155.91 24.52C156.737 24.04 157.39 23.36 157.87 22.48C158.35 21.5733 158.59 20.5067 158.59 19.28C158.59 18.0267 158.35 16.96 157.87 16.08C157.39 15.2 156.737 14.52 155.91 14.04C155.084 13.56 154.15 13.32 153.11 13.32C152.07 13.32 151.137 13.56 150.31 14.04C149.484 14.52 148.817 15.2 148.31 16.08C147.83 16.96 147.59 18.0267 147.59 19.28C147.59 20.5067 147.83 21.5733 148.31 22.48C148.817 23.36 149.484 24.04 150.31 24.52C151.137 25 152.07 25.24 153.11 25.24Z" fill="white"/>
</svg>
